<?xml version="1.0" encoding="UTF-8" standalone="no"?>
<svg
   xmlns:dc="http://purl.org/dc/elements/1.1/"
   xmlns:cc="http://creativecommons.org/ns#"
   xmlns:rdf="http://www.w3.org/1999/02/22-rdf-syntax-ns#"
   xmlns:svg="http://www.w3.org/2000/svg"
   xmlns="http://www.w3.org/2000/svg"
   xmlns:xlink="http://www.w3.org/1999/xlink"
   version="1.1"
   width="64"
   height="64"
   id="svg3140">
  <metadata
     id="metadata9">
    <rdf:RDF>
      <cc:Work
         rdf:about="">
        <dc:format>image/svg+xml</dc:format>
        <dc:type
           rdf:resource="http://purl.org/dc/dcmitype/StillImage" />
        <dc:title></dc:title>
      </cc:Work>
    </rdf:RDF>
  </metadata>
  <defs
     id="defs11" />
  <use
     style="stroke:#ffffff;stroke-opacity:1;stroke-width:4;stroke-miterlimit:4;stroke-dasharray:none;fill:#fcfcfc;fill-opacity:1"
     id="use1390"
     xlink:href="#g6119"
     y="0"
     x="0" />
  <g
     id="g6119">
    <path
       d="m 2,23 v 18 c 0,18 0,18 27,18 h 6 c 27,0 27,0 27,-18 V 23 C 62,5 62,5 35,5 H 29 C 2,5 2,5 2,23 Z M 29,11 h 6 c 24,0 21,0 21,12 v 18 c 0,12 3,12 -21,12 H 29 C 5,53 8,53 8,41 V 23 C 8,11 5,11 29,11 Z"
       style="fill:#808080"
       id="path3759" />
    <rect
       x="32"
       y="42"
       width="16"
       height="6"
       style="color:#bebebe;fill:#808080;fill-opacity:1;"
       id="rect4987" />
    <path
       style="color:#000000;display:inline;overflow:visible;visibility:visible;fill:#808080;fill-opacity:1;fill-rule:nonzero;marker:none;enable-background:accumulate;"
       d="m 16.814453,22 c -0.05417,-2.82e-4 -0.09629,0.01178 -0.125,0.03516 -0.277913,0.226268 -0.462501,2.627328 -0.572265,5.75 C 19.669603,30.705775 23,33.781585 23,34.5 c 0,0.718415 -3.330397,3.794225 -6.882812,6.714844 0.109764,3.122672 0.294352,5.523732 0.572265,5.75 C 17.608113,47.712786 32,35.995884 32,34.5 32,33.050862 18.493832,22.008727 16.814453,22 Z"
       id="path4984" />
  </g>
</svg>
