<?xml version="1.0" encoding="UTF-8" standalone="no"?>
<svg
   xmlns:dc="http://purl.org/dc/elements/1.1/"
   xmlns:cc="http://creativecommons.org/ns#"
   xmlns:rdf="http://www.w3.org/1999/02/22-rdf-syntax-ns#"
   xmlns:svg="http://www.w3.org/2000/svg"
   xmlns="http://www.w3.org/2000/svg"
   version="1.1"
   id="svg3747"
   height="64"
   width="64">
  <defs
     id="defs3749" />
  <metadata
     id="metadata3752">
    <rdf:RDF>
      <cc:Work
         rdf:about="">
        <dc:format>image/svg+xml</dc:format>
        <dc:type
           rdf:resource="http://purl.org/dc/dcmitype/StillImage" />
        <dc:title></dc:title>
      </cc:Work>
    </rdf:RDF>
  </metadata>
  <path
     id="path4984-3"
     d="m 16.82962,11.99989 c -0.0128,0 -0.0171,0 -0.0293,0.01 -0.0459,0 -0.0857,0.015 -0.11133,0.049 -0.91866,1.1969 -0.91866,38.6992 0,39.896 0.0256,0.033 0.0655,0.046 0.11133,0.049 C 20.41028,52.11019 51,34.33379 51,32.00699 51,29.68809 20.60829,12.01829 16.82963,12.00429 Z"
     style="color:#000000;display:inline;overflow:visible;visibility:visible;fill:#ffffff;fill-opacity:1;fill-rule:nonzero;stroke:#ffffff;stroke-width:4;marker:none;enable-background:accumulate;stroke-opacity:1;stroke-miterlimit:4;stroke-dasharray:none" />
  <path
     id="path4984"
     d="m 16.82962,11.99989 c -0.0128,0 -0.0171,0 -0.0293,0.01 -0.0459,0 -0.0857,0.015 -0.11133,0.049 -0.91866,1.1969 -0.91866,38.6992 0,39.896 0.0256,0.033 0.0655,0.046 0.11133,0.049 C 20.41028,52.11019 51,34.33379 51,32.00699 51,29.68809 20.60829,12.01829 16.82963,12.00429 Z"
     style="color:#000000;display:inline;overflow:visible;visibility:visible;fill:#808080;fill-opacity:1;fill-rule:nonzero;stroke:none;stroke-width:3;marker:none;enable-background:accumulate" />
</svg>
